<svg xmlns="http://www.w3.org/2000/svg" width="311" height="358" viewBox="0 0 311 358" version="1.1"><path d="M 246.415 165.421 C 243.448 166.713, 239 171.340, 239 173.135 C 239 174.291, 244.728 174.249, 245.446 173.087 C 245.756 172.585, 247.470 172.248, 249.255 172.337 C 252.139 172.482, 252.500 172.826, 252.500 175.428 C 252.500 177.810, 251.962 178.500, 249.619 179.127 C 245.985 180.099, 242 183.785, 242 186.174 C 242 187.178, 241.550 188, 241 188 C 240.450 188, 240 188.869, 240 189.930 C 240 191.600, 240.406 191.744, 243.002 191 C 248.184 189.513, 255.144 185.633, 257.110 183.133 C 259.245 180.419, 259.711 172.197, 257.920 168.850 C 257.325 167.739, 255.315 166.194, 253.452 165.415 C 249.477 163.755, 250.245 163.754, 246.415 165.421 M 49.901 168.106 C 44.802 173.564, 46.724 179.899, 54.815 184.303 C 57.550 185.791, 61.860 187.293, 64.394 187.640 C 68.506 188.204, 69 188.063, 69 186.327 C 69 183.102, 66.717 180.990, 62.497 180.311 C 57.929 179.576, 55.545 177.253, 57.250 175.198 C 59.282 172.750, 62.031 171.780, 63.494 172.995 C 64.557 173.877, 65.114 173.656, 66 172.001 C 67.492 169.213, 65.995 167.371, 61.142 166.023 C 55.224 164.379, 52.997 164.792, 49.901 168.106 M 153.500 167.765 C 152.950 168.169, 151.825 169.361, 151 170.414 C 149.572 172.236, 149.616 172.265, 151.936 171.029 C 154.135 169.857, 154.591 169.985, 156.624 172.349 C 158.805 174.885, 158.896 174.902, 159.528 172.912 C 160.614 169.491, 156.237 165.754, 153.500 167.765 M 198 186.180 C 196.075 186.730, 193.938 187.645, 193.250 188.213 C 191.482 189.672, 191.697 193.670, 193.582 194.393 C 196.125 195.369, 205.200 195.094, 211.377 193.853 C 218.659 192.391, 220.285 190.051, 216.095 187.067 C 212.873 184.773, 204.382 184.357, 198 186.180 M 99.500 188.929 C 92.492 190.620, 89.950 193.833, 93.934 195.965 C 96.817 197.508, 110.507 197.233, 114.532 195.551 C 118.466 193.907, 119.216 190.721, 116.066 189.035 C 113.905 187.879, 104.111 187.816, 99.500 188.929 M 150.509 227.014 C 150.825 227.525, 150.377 229.020, 149.515 230.337 C 148.320 232.161, 148.185 233.357, 148.949 235.365 C 149.500 236.814, 150.412 238, 150.975 238 C 151.539 238, 152 238.686, 152 239.525 C 152 241.456, 156.701 243.292, 159.711 242.536 C 161.713 242.034, 162 241.338, 162 236.981 C 162 232.728, 161.718 232, 160.071 232 C 159.011 232, 157.368 231.225, 156.421 230.278 C 154.412 228.269, 149.664 225.648, 150.509 227.014" stroke="none" fill="#e8bec6" fill-rule="evenodd"/><path d="M 120.500 7.163 C 118.300 7.648, 115.150 8.262, 113.500 8.526 C 109.553 9.159, 92 17.708, 92 18.997 C 92 19.549, 91.484 20, 90.853 20 C 89.219 20, 81.664 26.282, 73.449 34.472 C 60.599 47.281, 55.778 54.947, 58.354 58.470 C 59.422 59.930, 59.927 59.754, 63.135 56.801 C 65.107 54.986, 70.178 49.603, 74.402 44.839 C 78.627 40.076, 84.652 34.227, 87.792 31.842 C 90.931 29.457, 93.759 27.154, 94.076 26.725 C 95.590 24.674, 115.551 15.984, 121.160 14.933 C 130.510 13.182, 144.548 13.067, 152.408 14.677 C 160.088 16.251, 162 15.954, 162 13.186 C 162 10.294, 158.871 8.114, 153.171 7.032 C 146.924 5.848, 126.082 5.931, 120.500 7.163 M 176.370 9.367 C 172.638 11.079, 171.389 12.789, 172.823 14.223 C 173.400 14.800, 179.863 15.643, 187.186 16.097 C 208.479 17.416, 220.538 22.640, 233.550 36.180 C 237.648 40.443, 241 44.297, 241 44.744 C 241 46.017, 244.862 49, 246.511 49 C 247.576 49, 248 47.886, 248 45.090 C 248 38.311, 236.856 25.898, 222.600 16.798 C 221.028 15.794, 215.449 13.514, 208.500 11.034 C 200.611 8.220, 181.082 7.206, 176.370 9.367 M 249.667 49.667 C 247.761 51.573, 249.525 56.092, 254.750 62.686 C 256.538 64.942, 258 67.301, 258 67.927 C 258 68.554, 259.072 71.189, 260.382 73.783 C 266.197 85.296, 271.822 109.351, 273.021 127.828 C 274.064 143.922, 275.983 147.771, 279.386 140.599 C 281.353 136.453, 281.378 130.616, 279.484 117.500 C 277.311 102.455, 277.028 100.922, 276.089 99.141 C 275.613 98.239, 274.678 94.800, 274.012 91.500 C 272.159 82.332, 262.859 60, 260.893 60 C 260.521 60, 259.933 58.869, 259.586 57.487 C 258.900 54.755, 253.430 49, 251.518 49 C 250.867 49, 250.033 49.300, 249.667 49.667 M 47.077 69.589 C 45.385 71.013, 44 73.015, 44 74.039 C 44 75.063, 43.401 76.260, 42.668 76.700 C 38.844 78.997, 31.425 97.939, 28.451 113 C 24.397 133.529, 24.544 148.369, 28.997 168 C 30.849 176.165, 31.115 178.425, 31.114 186 C 31.113 193.355, 30.107 196.725, 25.439 205 C 23.750 207.995, 23.543 219.274, 25.088 224.101 C 26.622 228.891, 28.982 233.564, 32.750 239.276 C 34.538 241.985, 36 244.592, 36 245.071 C 36 245.549, 37.180 248.521, 38.622 251.674 C 43.081 261.420, 42.966 263.899, 37.743 270.669 C 35.268 273.876, 32.241 277.400, 31.015 278.500 C 26.525 282.530, 22.055 294.189, 21.867 302.362 C 21.747 307.582, 22.814 310.520, 26.332 314.652 C 27.340 315.835, 28.398 318.550, 28.684 320.684 C 29.151 324.166, 28.731 325.147, 24.602 330.215 C 19.798 336.113, 19.200 337.800, 21.200 339.800 C 24.236 342.836, 30.303 338.723, 34.380 330.865 C 36.819 326.165, 37.064 324.863, 36.473 319.770 C 36.105 316.596, 35.398 314, 34.902 314 C 34.406 314, 34 313.358, 34 312.573 C 34 311.787, 32.787 310.191, 31.305 309.025 L 28.609 306.905 29.808 299.912 C 31.322 291.084, 34.577 284.631, 40.326 279.059 C 42.807 276.654, 45.595 272.845, 46.521 270.594 C 47.448 268.342, 48.609 265.719, 49.103 264.764 C 50.542 261.978, 50.169 259.343, 47.396 252.720 C 42.702 241.505, 41.120 238.345, 39.550 237.041 C 38.697 236.334, 38 235.196, 38 234.512 C 38 233.829, 37.108 232.135, 36.017 230.749 C 34.926 229.362, 33.394 225.771, 32.612 222.769 C 31.430 218.229, 31.404 216.389, 32.463 211.837 C 33.163 208.827, 34.328 205.269, 35.052 203.932 C 36.416 201.413, 37.998 194.541, 38.317 189.750 C 38.418 188.238, 38.752 186.887, 39.061 186.750 C 39.370 186.613, 41.070 188.149, 42.839 190.163 C 46.419 194.241, 52.710 197.888, 57.411 198.610 C 61.219 199.196, 72.189 199.144, 72.795 198.539 C 73.301 198.033, 76 200.525, 76 201.498 C 76 204.667, 89.795 219.879, 96.849 224.488 C 103.719 228.978, 121.180 232.844, 135.092 232.955 L 140.683 233 141.913 237.104 C 142.589 239.361, 143.399 241.875, 143.712 242.691 C 144.103 243.710, 143.690 244.110, 142.390 243.971 C 138.442 243.550, 137.021 244.131, 130.849 248.686 C 127.357 251.264, 121.125 255.865, 117 258.911 C 109.561 264.403, 89.029 283.980, 88.969 285.637 C 88.952 286.112, 86.454 289.200, 83.420 292.500 C 80.385 295.800, 75.471 301.650, 72.500 305.500 C 69.529 309.350, 65.712 314.075, 64.017 316 C 57.043 323.923, 51.783 332.747, 51.258 337.406 C 50.845 341.069, 51.047 342, 52.254 342 C 53.904 342, 61 334.648, 61 332.938 C 61 331.738, 64.987 326.452, 73.023 317 C 76.062 313.425, 80.173 308.475, 82.157 306 C 84.141 303.525, 89.866 297.225, 94.878 292 C 99.891 286.775, 103.990 282.050, 103.986 281.500 C 103.977 280.075, 116.176 269, 117.755 269 C 118.479 269, 120.067 269.643, 121.285 270.430 C 126.366 273.709, 149.021 276.515, 170 276.461 C 185.595 276.422, 194.609 275.569, 196.561 273.949 C 198.209 272.582, 200.755 275.169, 207.438 285 C 209.868 288.575, 213.944 293.975, 216.496 297 C 224.487 306.472, 234.763 320.379, 241.424 330.736 C 246.167 338.108, 249.017 340.591, 251.603 339.599 C 254.203 338.601, 250.227 327.695, 245.341 322.423 C 244.082 321.064, 243.040 319.738, 243.026 319.476 C 243.012 319.214, 243 318.658, 243 318.240 C 243 317.822, 241.984 316.359, 240.741 314.990 C 237.259 311.151, 220 288.227, 220 287.440 C 220 286.636, 214.595 280.167, 209.495 274.867 C 207.573 272.869, 206 270.808, 206 270.286 C 206 269.765, 204.875 268.736, 203.500 268 C 202.125 267.264, 201 266.282, 201 265.818 C 201 264.661, 189.512 253.172, 184 248.818 C 179.947 245.615, 175.453 243.174, 170.863 241.682 C 169.028 241.085, 168.822 235.778, 170.566 234.034 C 171.134 233.466, 175.671 232.790, 180.648 232.533 C 185.625 232.276, 190.920 231.601, 192.414 231.033 C 193.908 230.465, 196.270 230, 197.664 230 C 199.058 230, 201.616 229.378, 203.349 228.617 C 205.082 227.857, 208.075 226.651, 210 225.937 C 219.709 222.338, 231.919 210.773, 234.340 202.882 C 234.742 201.571, 236.327 201.262, 242.668 201.257 C 255.351 201.247, 262.761 196.779, 267.658 186.190 C 269.698 181.779, 270.044 179.745, 269.702 174.184 C 269.264 167.064, 266.024 159, 263.602 159 C 262.856 159, 261.646 158.278, 260.914 157.396 C 255.038 150.316, 236.583 154.537, 239.555 162.282 C 240.549 164.874, 242.801 165.050, 246.564 162.830 C 249.760 160.944, 250.532 160.855, 253.951 161.984 C 261.943 164.621, 264.721 176.990, 259.260 185.622 C 256.064 190.673, 247.987 194.830, 242.593 194.201 C 239.667 193.859, 239.411 193.558, 239.800 190.912 C 240.035 189.311, 240.626 188, 241.113 188 C 241.601 188, 242 187.178, 242 186.174 C 242 183.785, 245.985 180.099, 249.619 179.127 C 251.962 178.500, 252.500 177.810, 252.500 175.428 C 252.500 172.826, 252.139 172.482, 249.255 172.337 C 247.470 172.248, 245.756 172.585, 245.446 173.087 C 245.136 173.589, 243.410 174, 241.610 174 C 237.945 174, 237.595 174.501, 233.921 185 C 230.894 193.649, 223.483 206.372, 218.797 210.966 C 214.497 215.181, 206.460 219.830, 201.115 221.194 C 190.240 223.969, 182.158 225.041, 170.269 225.287 C 162.728 225.444, 156.586 226.014, 155.987 226.613 C 154.300 228.300, 156.007 231.051, 159.126 231.675 C 161.792 232.208, 162.001 232.586, 162.014 236.875 C 162.031 242.812, 162.902 246, 164.506 246 C 165.206 246, 166.835 246.856, 168.127 247.902 C 170.303 249.664, 170.480 250.548, 170.539 259.932 L 170.602 270.060 163.551 269.547 C 153.570 268.821, 144.865 267.957, 142.327 267.442 C 140.259 267.022, 140.182 266.626, 140.731 259.250 C 141.350 250.930, 143.085 247, 146.140 247 C 147.264 247, 148.446 245.957, 149.014 244.463 C 149.974 241.938, 149.653 235.865, 148.456 233.929 C 148.110 233.370, 148.536 231.830, 149.403 230.508 C 150.269 229.186, 150.709 227.406, 150.382 226.552 C 149.715 224.814, 150.209 224.858, 132.857 224.996 C 122.645 225.077, 118.896 224.692, 113.357 222.993 C 109.586 221.836, 105.825 220.462, 105 219.939 C 104.175 219.415, 102.825 218.694, 102 218.335 C 97.691 216.463, 90.889 210.425, 87.307 205.294 C 81.851 197.478, 79.671 192.979, 76.121 182.206 C 74.467 177.188, 72.623 172.164, 72.022 171.041 C 70.506 168.209, 67.553 168.490, 66.136 171.602 C 65.176 173.708, 64.678 173.978, 63.519 173.016 C 62.058 171.803, 60.806 172.184, 57.806 174.756 C 56.432 175.935, 56.336 176.565, 57.297 178.104 C 57.948 179.147, 59.469 180, 60.675 180 C 65.373 180, 67.867 181.793, 68.994 185.979 C 69.597 188.216, 69.806 190.505, 69.460 191.065 C 68.634 192.402, 60.316 191.978, 56.500 190.404 C 54.850 189.724, 51.523 187.390, 49.106 185.218 L 44.712 181.269 45.238 173.915 C 45.727 167.087, 46.003 166.361, 49.094 163.780 C 52.574 160.875, 56.679 160.222, 60.066 162.035 C 61.130 162.605, 62 163.678, 62 164.420 C 62 166.167, 66.352 169.026, 67.697 168.163 C 70.915 166.099, 69.942 160.609, 65.630 156.500 L 63.532 154.500 66.016 154.208 C 67.382 154.048, 69.400 153.533, 70.500 153.064 C 71.600 152.595, 74.602 151.465, 77.171 150.553 C 79.740 149.641, 82.383 148.243, 83.044 147.447 C 83.704 146.651, 84.771 146, 85.414 146 C 88.783 146, 99.482 131.333, 102.292 122.860 C 103.744 118.485, 103.908 110.279, 102.588 108.142 C 100.475 104.723, 96.013 110.307, 95.987 116.404 C 95.969 120.669, 88.909 133.031, 84.295 136.878 C 79.027 141.271, 73.173 145, 71.545 145 C 67.935 145, 59.169 149.335, 58.119 151.638 C 57.505 152.986, 56.440 154.015, 55.751 153.926 C 50.508 153.244, 47.550 154.197, 44.339 157.602 C 42.470 159.584, 40.274 162.803, 39.458 164.756 C 38.641 166.709, 37.704 168.037, 37.374 167.708 C 35.959 166.293, 33.020 147.818, 33.010 140.280 C 32.990 124.127, 37.440 103.105, 43.866 89 C 47.345 81.363, 52.534 72.841, 54.309 71.847 C 55.239 71.327, 56 70.023, 56 68.950 C 56 66.026, 50.875 66.393, 47.077 69.589 M 166.750 73.197 C 164.688 74.197, 163 75.462, 163 76.008 C 163 76.554, 162.417 77, 161.704 77 C 159.997 77, 150 86.974, 150 88.677 C 150 89.405, 149.615 90, 149.144 90 C 147.893 90, 138.810 108.868, 137.466 114.259 C 137.088 115.777, 136.378 117.266, 135.889 117.568 C 135.400 117.871, 135 118.991, 135 120.059 C 135 121.127, 134.656 122, 134.236 122 C 133.816 122, 132.420 123.702, 131.135 125.782 C 128.334 130.314, 120.177 136.567, 115.071 138.097 C 109.917 139.641, 106.544 142.369, 107.313 144.372 C 107.782 145.596, 109.269 146, 113.305 146 C 117.919 146, 119.602 145.402, 125.291 141.742 C 129.321 139.149, 133.515 135.337, 136.018 131.992 C 140.285 126.289, 146.366 114.423, 147.598 109.396 C 148.555 105.492, 153.639 96.427, 157.693 91.397 C 159.512 89.140, 161 86.778, 161 86.147 C 161 85.516, 161.538 85, 162.195 85 C 162.853 85, 164.650 83.794, 166.189 82.319 L 168.987 79.639 171.538 82.036 C 173.545 83.922, 174.454 84.205, 175.795 83.365 C 177.658 82.198, 178.712 75.312, 177.251 73.851 C 175.078 71.678, 170.473 71.391, 166.750 73.197 M 180.584 86.865 C 179.431 88.729, 181.005 107.169, 182.498 109.300 C 183.324 110.480, 184 112.521, 184 113.836 C 184 116.402, 191.161 128.489, 195.724 133.625 C 206.159 145.373, 224.743 153.517, 238.916 152.553 C 244.714 152.158, 246 151.522, 246 149.048 C 246 146.708, 244.923 146.329, 234.273 144.921 C 229.037 144.229, 223.598 142.801, 220.783 141.381 C 218.189 140.071, 215.414 139, 214.617 139 C 213.819 139, 213.017 138.662, 212.833 138.250 C 212.650 137.838, 209.665 135.074, 206.200 132.108 C 196.733 124.005, 189.260 112.281, 188.309 104.040 C 188.021 101.543, 187.828 97.064, 187.880 94.087 C 187.932 91.110, 187.475 88.072, 186.865 87.337 C 185.625 85.844, 181.410 85.527, 180.584 86.865 M 236.667 107.667 C 234.596 109.738, 237.708 128.440, 241.415 136.203 C 243.974 141.562, 247.506 145, 250.452 145 C 252.605 145, 253 144.544, 253 142.059 C 253 140.441, 252.602 138.872, 252.116 138.572 C 249.633 137.037, 243 118.189, 243 112.668 C 243 109.143, 238.636 105.697, 236.667 107.667 M 276.861 152.250 C 276.085 153.693, 275.624 159.702, 275.575 169 L 275.500 183.500 270.740 192.810 C 263.593 206.792, 261.710 213.150, 262.309 221.280 C 262.584 225.009, 263.527 229.156, 264.405 230.495 C 265.282 231.834, 266 233.620, 266 234.465 C 266 235.309, 266.401 236, 266.892 236 C 267.382 236, 268.060 237.012, 268.399 238.250 C 268.738 239.488, 271.090 242.750, 273.626 245.500 C 278.727 251.032, 283.500 260.081, 284.529 266.173 C 285.143 269.804, 284.850 270.550, 281.024 275.086 C 276.086 280.942, 274.856 284.607, 275.443 291.708 C 275.953 297.885, 279.291 303.395, 288.040 312.500 C 292.528 317.170, 294.014 319.515, 294.745 323.079 C 295.583 327.164, 295.433 327.973, 293.347 330.579 C 292.062 332.186, 291.008 334.007, 291.005 334.628 C 291.002 335.248, 290.325 336.315, 289.500 337 C 287.648 338.537, 287.601 340.072, 289.332 342.439 C 290.579 344.145, 290.958 343.989, 295.279 339.990 C 298.917 336.624, 300.117 334.680, 300.947 330.810 C 302.438 323.857, 302.264 318.464, 300.500 317 C 299.675 316.315, 299 315.167, 299 314.449 C 299 313.730, 297.355 311.423, 295.345 309.321 C 293.335 307.220, 290.131 303.475, 288.224 301 C 286.318 298.525, 284.276 296.195, 283.688 295.823 C 283.099 295.450, 282.499 292.716, 282.354 289.748 C 282.110 284.757, 282.358 284.074, 285.635 280.699 C 290.166 276.034, 292.194 269.499, 291.346 262.290 C 290.995 259.298, 290.098 256.241, 289.353 255.496 C 288.609 254.752, 288 253.517, 288 252.751 C 288 251.986, 286.505 249.591, 284.678 247.430 C 275.886 237.027, 270.612 228.309, 269.377 222.137 C 268.491 217.704, 270.747 209.639, 275.570 200 C 283.119 184.912, 282.924 185.731, 283.053 168.591 C 283.160 154.405, 282.990 152.708, 281.336 151.455 C 278.823 149.550, 278.258 149.651, 276.861 152.250 M 182.391 159.526 C 181.157 161.410, 180.706 164.580, 180.618 171.997 C 180.512 180.939, 180.718 182.159, 182.659 184.102 C 185.296 186.741, 189.344 186.091, 191.144 182.738 C 191.804 181.507, 192.548 175.952, 192.797 170.394 C 193.232 160.677, 193.159 160.225, 190.902 158.644 C 187.503 156.263, 184.312 156.594, 182.391 159.526 M 117.520 160.329 C 115.712 163.088, 113.800 176.748, 114.636 180.929 C 115.912 187.309, 120.685 189.216, 124.587 184.904 C 127.165 182.056, 127.919 164.052, 125.609 160.527 C 123.481 157.279, 119.581 157.183, 117.520 160.329 M 151.750 171.080 C 149.643 172.307, 149.497 174.930, 151.390 177.519 C 152.584 179.152, 153.150 179.253, 155.390 178.232 C 158.440 176.842, 158.776 174.013, 156.171 171.655 C 154.053 169.738, 154.054 169.738, 151.750 171.080 M 150.495 195.263 C 148.252 196.518, 148.690 198.750, 151.545 200.622 C 153.706 202.038, 154.688 202.110, 158.045 201.105 C 162.380 199.806, 162.992 198.208, 160.142 195.628 C 158.237 193.904, 153.260 193.716, 150.495 195.263 M 178 260.204 C 178 263.852, 177.753 267.479, 177.452 268.265 C 177.055 269.300, 177.742 269.717, 179.951 269.780 C 182.608 269.855, 182.873 269.631, 182.017 268.031 C 181.477 267.022, 181.125 264.129, 181.235 261.601 C 181.375 258.387, 180.919 256.490, 179.717 255.289 C 178.094 253.666, 178 253.935, 178 260.204 M 130.606 258.667 C 127.674 261.599, 127.442 265.278, 130.157 265.795 C 131.410 266.034, 132.064 264.942, 132.837 261.318 C 133.399 258.682, 133.734 256.400, 133.581 256.248 C 133.428 256.095, 132.089 257.183, 130.606 258.667 M 189 266.500 C 189 267.362, 189.902 268, 191.122 268 C 192.896 268, 193.040 267.753, 192 266.500 C 191.315 265.675, 190.360 265, 189.878 265 C 189.395 265, 189 265.675, 189 266.500 M 113.615 281.813 C 113.269 282.374, 113.423 283.982, 113.957 285.388 C 114.942 287.977, 116.287 288.541, 123.500 289.391 C 128.171 289.941, 134.100 292.008, 136.340 293.867 C 137.205 294.585, 138.351 294.901, 138.887 294.570 C 139.423 294.238, 140.129 294.400, 140.456 294.929 C 141.214 296.155, 152.194 295.628, 157.731 294.100 C 161.421 293.082, 162.534 293.193, 166.426 294.966 C 172.312 297.648, 178.861 297.546, 188.589 294.622 C 192.940 293.314, 198.412 291.721, 200.750 291.082 C 205.058 289.904, 206.025 288.168, 204.082 285.099 C 202.825 283.113, 195.584 284.149, 184.500 287.902 L 175.500 290.949 170.500 288.613 C 164.459 285.790, 159.157 285.446, 152.507 287.448 C 146.894 289.137, 140.845 288.632, 137 286.151 C 135.625 285.264, 132.925 283.965, 131 283.264 C 126.184 281.511, 114.410 280.528, 113.615 281.813 M 114.468 300.052 C 114.111 300.630, 113.661 303.667, 113.468 306.802 C 112.918 315.776, 112.198 321.541, 111.114 325.676 C 110.563 327.779, 110.050 332.200, 109.974 335.500 C 109.735 345.924, 109.753 346, 112.481 346 C 114.259 346, 115.084 345.363, 115.394 343.750 C 115.631 342.512, 116.307 339.025, 116.895 336 C 117.484 332.975, 118.165 328.700, 118.410 326.500 C 118.654 324.300, 119.377 318.450, 120.017 313.500 C 121.328 303.351, 120.448 299, 117.084 299 C 116.003 299, 114.826 299.473, 114.468 300.052 M 188.989 304.250 C 187.354 306.931, 186.988 309.425, 186.896 318.500 C 186.577 349.926, 186.693 351, 190.390 351 C 192.522 351, 192.793 350.463, 193.294 345.250 C 193.598 342.087, 193.905 336.702, 193.975 333.282 C 194.045 329.862, 194.294 326.070, 194.528 324.856 C 194.762 323.642, 194.492 322.092, 193.928 321.413 C 193.364 320.734, 193.262 319.956, 193.701 319.685 C 195.033 318.861, 195.224 303.974, 193.923 302.407 C 192.172 300.297, 191.171 300.671, 188.989 304.250" stroke="none" fill="#050506" fill-rule="evenodd"/></svg>